# xmcd
#
# Track frame offsets: 
#        150
#        14133
#        28511
#        42884
#        54360
#        69261
#        91991
#        107939
#        119805
#        134941
#        148409
#        162091
#        177193
#        191132
#        205063
#        223971
#        239821
#        270909
#        284268
#        301884
#
# Disc length: 4357 seconds
#
# Revision: 1
# Processed by: cddbd v1.5.2PL0 Copyright (c) Steve Scherf et al.
# Submitted via: ExactAudioCopy v0.99pb5
#
DISCID=3d110314
DTITLE=Various Artist - CD 24 New Orleans Memories
DYEAR=2008
DGENRE=Jazz
TTITLE0=Louis Armstrong - Do You Know What It Means To Miss New Orlean
TTITLE0=s
TTITLE1=Louis Armstrong - Where The Blues Were Born New Orleans
TTITLE2=Paul Barbarin - Streets Of The City
TTITLE3=King Oliver - Canal Street Blues
TTITLE4=Louis Armstrong - Basin Street Blues
TTITLE5=Kid Ory - Bourbon Street Parade
TTITLE6=Kid Ory - South Rampart Street Parade
TTITLE7=Louis Armstrong - Mahogany Hall Stomp
TTITLE8=Jelly Roll Morton - New Olreans Blues
TTITLE9=King Oliver - New Orleans Stomp
TTITLE10=Armand  J Piron - New Orleans Wiggle
TTITLE11=Louis Armstrong - The King of The Zulus
TTITLE12=Albert Nicolas - Les Ognons
TTITLE13=Jimmie Noone - King Joe
TTITLE14=Sidney Bechet - Dear Old Southland
TTITLE15=Barney Bigard - High Society
TTITLE16=Louis Armstrong - News Orleans Function
TTITLE17=Billie Holiday - Farewell To Storyville
TTITLE18=Hoagy Carmichael - New Orleans
TTITLE19=Duke Ellington - Congo Square
EXTD=YEAR: 2008
EXTT0=
EXTT1=
EXTT2=
EXTT3=
EXTT4=
EXTT5=
EXTT6=
EXTT7=
EXTT8=
EXTT9=
EXTT10=
EXTT11=
EXTT12=
EXTT13=
EXTT14=
EXTT15=
EXTT16=
EXTT17=
EXTT18=
EXTT19=
PLAYORDER=
